<?xml version="1.0" ?><!DOCTYPE svg  PUBLIC '-//W3C//DTD SVG 1.1//EN'  'http://www.w3.org/Graphics/SVG/1.1/DTD/svg11.dtd'><svg enable-background="new 0 0 256 256" height="70px" id="Layer_1" version="1.1" viewBox="0 0 256 256" width="70px" xml:space="preserve" xmlns="http://www.w3.org/2000/svg" xmlns:xlink="http://www.w3.org/1999/xlink"><g><path d="M128,42.681c-56.626,0-102.695,46.068-102.695,102.694c0,56.627,46.069,102.695,102.695,102.695   c56.626,0,102.694-46.068,102.694-102.695C230.695,88.749,184.626,42.681,128,42.681z M128,240.07   c-52.215,0-94.695-42.479-94.695-94.695c0-52.215,42.48-94.694,94.695-94.694c52.215,0,94.694,42.479,94.694,94.694   C222.695,197.591,180.215,240.07,128,240.07z" fill="#145C5D"/><circle cx="128" cy="121.937" fill="#145C5D" r="23.101"/><path d="M128,68.808c-42.218,0-76.565,34.349-76.565,76.567c0,17.561,6.103,34.723,17.184,48.323   c0.76,0.933,1.898,1.474,3.101,1.474h41.36c0.016,0,0.03-0.004,0.045-0.005c1.762,6.576,7.744,11.423,14.875,11.423   s13.114-4.847,14.876-11.422c0.015,0,0.029,0.004,0.043,0.004h41.361c1.203,0,2.341-0.541,3.101-1.474   c11.082-13.603,17.184-30.764,17.184-48.323C204.567,103.156,170.219,68.808,128,68.808z M182.348,187.172H142.92   c-0.015,0-0.029,0.004-0.044,0.004c-1.763-6.572-7.746-11.419-14.876-11.419s-13.112,4.847-14.874,11.42   c-0.016-0.001-0.03-0.005-0.046-0.005H73.654c-9.183-11.933-14.219-26.699-14.219-41.797c0-37.808,30.758-68.567,68.565-68.567   c37.808,0,68.566,30.76,68.566,68.567C196.567,160.472,191.53,175.238,182.348,187.172z" fill="#145C5D"/><path d="M72.661,31.693c-14.726,0-26.706,11.981-26.706,26.707c0,2.209,1.791,4,4,4s4-1.791,4-4   c0-10.314,8.392-18.707,18.706-18.707c2.209,0,4-1.791,4-4S74.87,31.693,72.661,31.693z" fill="#145C5D"/><path d="M30.192,58.4c0-23.418,19.051-42.471,42.469-42.471c2.209,0,4-1.791,4-4s-1.791-4-4-4   c-27.829,0-50.469,22.642-50.469,50.471c0,2.209,1.791,4,4,4S30.192,60.609,30.192,58.4z" fill="#145C5D"/><path d="M202.047,58.4c0,2.209,1.791,4,4,4s4-1.791,4-4c0-14.726-11.98-26.707-26.706-26.707c-2.209,0-4,1.791-4,4   s1.791,4,4,4C193.656,39.693,202.047,48.086,202.047,58.4z" fill="#145C5D"/><path d="M183.341,7.93c-2.209,0-4,1.791-4,4s1.791,4,4,4c23.417,0,42.467,19.053,42.467,42.471c0,2.209,1.791,4,4,4   s4-1.791,4-4C233.808,30.571,211.169,7.93,183.341,7.93z" fill="#145C5D"/></g></svg>