<svg width="17" height="15" viewBox="0 0 23 21" fill="#424551" xmlns="http://www.w3.org/2000/svg">
<path fill-rule="evenodd" clip-rule="evenodd" d="M3.1416 2.00802C3.04394 2.00066 2.90841 2 2.65424 2H1C0.447715 2 0 1.55229 0 1C0 0.44772 0.447715 4.7042e-06 1 4.7042e-06H2.65424C2.66367 4.7042e-06 2.6731 3.51211e-06 2.68252 2.32002e-06C2.89719 -2.41444e-05 3.10972 -5.02514e-05 3.29187 0.0136738C3.49456 0.0289456 3.73005 0.0648169 3.97366 0.173486C4.31651 0.326421 4.60939 0.572764 4.81881 0.884339C4.96761 1.10573 5.0433 1.33159 5.09308 1.52866C5.13781 1.70576 5.1742 1.91516 5.21095 2.12665C5.21257 2.13594 5.21418 2.14523 5.2158 2.15452L5.45407 3.52459L18.4681 3.90982C18.978 3.9249 19.4188 3.93793 19.7817 3.9779C20.1654 4.02015 20.5457 4.0996 20.9106 4.29398C21.4634 4.58852 21.9102 5.04874 22.1883 5.61008C22.3718 5.98053 22.4399 6.36306 22.4708 6.74778C22.5 7.11176 22.5 7.55266 22.5 8.06286V8.13661C22.5 8.61608 22.5 9.03199 22.4732 9.37689C22.4447 9.74264 22.3819 10.1059 22.2143 10.4619C21.9593 11.0037 21.5479 11.4568 21.0332 11.7628C20.695 11.9639 20.3395 12.0614 19.9782 12.125C19.6375 12.185 19.2235 12.225 18.7463 12.2712L9.01239 13.2132C8.5232 13.2605 8.09935 13.3015 7.74572 13.3078C7.37105 13.3144 6.99541 13.2853 6.61828 13.1467C6.05271 12.939 5.5628 12.5657 5.21236 12.0756C4.97869 11.7487 4.85092 11.3943 4.75782 11.0313C4.66995 10.6887 4.59701 10.2692 4.51282 9.78501L3.24537 2.4972C3.20182 2.24679 3.17795 2.11338 3.15397 2.01842C3.15312 2.01505 3.15229 2.01185 3.1515 2.00881C3.14837 2.00855 3.14507 2.00828 3.1416 2.00802ZM5.80385 5.53582L6.47694 9.4061C6.56924 9.93685 6.62925 10.2776 6.69512 10.5344C6.75794 10.7794 6.80763 10.8681 6.83929 10.9123C6.9561 11.0757 7.11941 11.2001 7.30793 11.2694C7.35903 11.2882 7.45772 11.3125 7.71054 11.3081C7.97562 11.3034 8.32011 11.2708 8.85632 11.2189L18.5177 10.2839C19.0411 10.2333 19.3768 10.2001 19.6316 10.1553C19.8743 10.1126 19.9649 10.0712 20.0111 10.0438C20.1826 9.94174 20.3198 9.79071 20.4048 9.61011C20.4277 9.56147 20.4601 9.46731 20.4792 9.22162C20.4993 8.96369 20.5 8.62638 20.5 8.10051C20.5 7.54201 20.4993 7.18214 20.4772 6.90781C20.4562 6.64531 20.4204 6.5469 20.3961 6.49781C20.3034 6.3107 20.1545 6.15729 19.9702 6.05911C19.9218 6.03336 19.8245 5.99471 19.5628 5.96588C19.2892 5.93575 18.9295 5.92435 18.3713 5.90783L5.80385 5.53582Z" fill="#424551"/>
<path fill-rule="evenodd" clip-rule="evenodd" d="M8.5 16.5C7.94772 16.5 7.5 16.9477 7.5 17.5C7.5 18.0523 7.94772 18.5 8.5 18.5C9.05228 18.5 9.5 18.0523 9.5 17.5C9.5 16.9477 9.05228 16.5 8.5 16.5ZM5.5 17.5C5.5 15.8431 6.84315 14.5 8.5 14.5C10.1569 14.5 11.5 15.8431 11.5 17.5C11.5 19.1569 10.1569 20.5 8.5 20.5C6.84315 20.5 5.5 19.1569 5.5 17.5Z" fill="#424551"/>
<path fill-rule="evenodd" clip-rule="evenodd" d="M18 16.5C17.4477 16.5 17 16.9477 17 17.5C17 18.0523 17.4477 18.5 18 18.5C18.5523 18.5 19 18.0523 19 17.5C19 16.9477 18.5523 16.5 18 16.5ZM15 17.5C15 15.8431 16.3431 14.5 18 14.5C19.6569 14.5 21 15.8431 21 17.5C21 19.1569 19.6569 20.5 18 20.5C16.3431 20.5 15 19.1569 15 17.5Z" fill="#424551"/>
</svg>
